<svg xmlns="http://www.w3.org/2000/svg" width="16" height="16" viewBox="0 0 16 16">
  <path d="M582.8,4744.8a3.2,3.2,0,0,1,6.4,0c0,2-1.967,4.64-3.2,6.032C584.768,4749.44,582.8,4746.8,582.8,4744.8Zm2.634,7.769.566.567.566-.567c.173-.176,4.234-4.28,4.234-7.769a4.8,4.8,0,0,0-9.6,0C581.2,4748.288,585.262,4752.393,585.434,4752.568ZM586,4746.4a1.6,1.6,0,1,1,1.6-1.6A1.6,1.6,0,0,1,586,4746.4Zm0,9.6c-3.853,0-8-1-8-3.2,0-.76.518-1.823,2.987-2.56l.455,1.536c-1.522.447-1.842.943-1.842,1.023,0,.408,2.2,1.6,6.4,1.6s6.4-1.192,6.4-1.6c0-.08-.318-.576-1.831-1.023l.456-1.536c2.459.736,2.975,1.8,2.975,2.56C594,4755,589.853,4756,586,4756Z" transform="translate(-578 -4740)" fill="#8B0000" fill-rule="evenodd"/>
</svg>
