<svg xmlns="http://www.w3.org/2000/svg" width="16" height="16" viewBox="0 0 16 16">
  <path d="M679.008,4645.672a1.648,1.648,0,0,0-1.377-.672,1.99,1.99,0,0,0-1.158.368c-.182.12-.4.28-.647.472a9.3,9.3,0,0,0-1.043,1.008,2.431,2.431,0,0,0-.782,1.568c.085,2.264,1.66,4.864,4.676,7.888s5.607,4.608,7.839,4.7h.058a2.349,2.349,0,0,0,1.555-.792,10.748,10.748,0,0,0,1-1.04c.215-.264.374-.464.48-.616a2.138,2.138,0,0,0,.382-1.392,1.631,1.631,0,0,0-.674-1.176c-1.107-.784-2.094-1.448-2.97-1.976a1.674,1.674,0,0,0-.865-.231,2.342,2.342,0,0,0-1.081.288c-.141.072-.423.232-.843.472-.451-.368-.987-.864-1.6-1.48a21.2,21.2,0,0,1-1.494-1.639c.235-.433.39-.721.466-.873a1.885,1.885,0,0,0,.059-1.912C680.218,4647.416,679.563,4646.44,679.008,4645.672Zm7.537,13.728c-1.7-.064-3.978-1.456-6.735-4.224s-4.145-5.056-4.21-6.792c0,.009.011-.008.034-.04a3.781,3.781,0,0,1,.332-.416,8.044,8.044,0,0,1,.836-.824c.23-.176.422-.312.573-.416l.027-.016a.368.368,0,0,1,.229-.072c.074,0,.077,0,.087.016.526.728,1.164,1.68,1.9,2.848.015.023.008.12-.112.344-.1.192-.33.624-.7,1.288l-.243.439.29.409a18.2,18.2,0,0,0,1.965,2.24,19.682,19.682,0,0,0,2.2,1.96l.424.312.454-.264c.653-.384,1.078-.625,1.245-.7a.768.768,0,0,1,.341-.112c.032,0,.043,0,.049.008.825.5,1.782,1.136,2.852,1.9.013.008.014.008.018.048a.561.561,0,0,1-.121.336c-.054.081-.2.256-.391.5a8.982,8.982,0,0,1-.85.88,2.394,2.394,0,0,1-.462.36Z" transform="translate(-674 -4645)" fill="#8B0000" fill-rule="evenodd"/>
</svg>
